<svg width="18" height="14" viewBox="0 0 18 14" fill="none" xmlns="http://www.w3.org/2000/svg">
<path d="M17.364 6.29302C17.5514 6.48055 17.6567 6.73486 17.6567 7.00002C17.6567 7.26519 17.5514 7.5195 17.364 7.70702L11.707 13.364C11.6147 13.4595 11.5044 13.5357 11.3824 13.5881C11.2604 13.6405 11.1291 13.6681 10.9964 13.6693C10.8636 13.6704 10.7319 13.6451 10.609 13.5948C10.4861 13.5446 10.3744 13.4703 10.2806 13.3764C10.1867 13.2825 10.1124 13.1709 10.0621 13.048C10.0118 12.9251 9.98655 12.7934 9.9877 12.6606C9.98885 12.5278 10.0164 12.3966 10.0689 12.2746C10.1213 12.1526 10.1974 12.0423 10.293 11.95L14.243 8.00002L0.999953 8.00002C0.734736 8.00002 0.480381 7.89467 0.292845 7.70713C0.105309 7.51959 -4.74038e-05 7.26524 -4.73922e-05 7.00002C-4.73806e-05 6.73481 0.105309 6.48045 0.292845 6.29292C0.480381 6.10538 0.734736 6.00002 0.999953 6.00002L14.243 6.00002L10.293 2.05002C10.1108 1.86142 10.01 1.60882 10.0123 1.34662C10.0146 1.08443 10.1197 0.833612 10.3051 0.648204C10.4905 0.462797 10.7414 0.357627 11.0036 0.355348C11.2657 0.35307 11.5184 0.453864 11.707 0.636022L17.364 6.29302Z" fill="black"/>
</svg>
